<svg width="16" height="16" viewBox="0 0 16 16" fill="none" xmlns="http://www.w3.org/2000/svg">
<path fill-rule="evenodd" clip-rule="evenodd" d="M13.3334 0.666504C14.438 0.666504 15.3334 1.56194 15.3334 2.6665V13.3332C15.3334 14.4378 14.438 15.3332 13.3334 15.3332H2.66675C1.56218 15.3332 0.666748 14.4378 0.666748 13.3332V2.6665C0.666748 1.56194 1.56218 0.666504 2.66675 0.666504H13.3334ZM13.3334 1.99984C13.7016 1.99984 14.0001 2.29832 14.0001 2.6665V13.3332C14.0001 13.7014 13.7016 13.9998 13.3334 13.9998H10.0001V9.3331H11.3842C11.6711 9.3331 11.9259 9.1495 12.0167 8.87724L12.312 7.99124C12.4199 7.66744 12.1789 7.3331 11.8377 7.3331H10.0001V5.99978C10.0001 5.66645 10.3334 5.33312 10.6667 5.33312H12.0001C12.3683 5.33312 12.6667 5.03464 12.6667 4.66645V4.20912C12.6667 3.99378 12.5292 3.8007 12.3209 3.74575C11.4471 3.51514 10.6667 3.51514 10.6667 3.51514C9.00008 3.51514 8.00008 4.66645 8.00008 5.66645V7.3331H6.66675C6.29856 7.3331 6.00008 7.63157 6.00008 7.99977V8.66644C6.00008 9.03464 6.29855 9.3331 6.66675 9.3331H8.00008V13.9998H2.66675C2.29856 13.9998 2.00008 13.7014 2.00008 13.3332V2.6665C2.00008 2.29832 2.29856 1.99984 2.66675 1.99984H13.3334Z" fill="#FFF6F6"/>
</svg>
